<?xml version="1.0" encoding="UTF-8" standalone="no"?>
<!DOCTYPE svg PUBLIC "-//W3C//DTD SVG 1.1//EN" "http://www.w3.org/Graphics/SVG/1.1/DTD/svg11.dtd">
<svg version="1.1" xmlns="http://www.w3.org/2000/svg" xmlns:xlink="http://www.w3.org/1999/xlink" preserveAspectRatio="xMidYMid meet" viewBox="0 0 210 30" width="210" height="30"><defs><path d="M30 15C30 23.28 23.28 30 15 30C6.72 30 0 23.28 0 15C0 6.72 6.72 0 15 0C23.28 0 30 6.72 30 15Z" id="buTMr8vG"></path><path d="M60 15C60 23.28 53.28 30 45 30C36.72 30 30 23.28 30 15C30 6.72 36.72 0 45 0C53.28 0 60 6.72 60 15Z" id="admImM8xj"></path><path d="M89.83 12.72C91.08 20.9 85.46 28.56 77.28 29.82C69.1 31.08 61.43 25.46 60.17 17.28C58.92 9.1 64.54 1.43 72.72 0.17C80.9 -1.09 88.57 4.53 89.83 12.72Z" id="d1miqLApoz"></path><path d="M120 15C120 23.28 113.28 30 105 30C96.72 30 90 23.28 90 15C90 6.72 96.72 0 105 0C113.28 0 120 6.72 120 15Z" id="ammJb9RE9"></path><path d="M150 15C150 23.28 143.28 30 135 30C126.72 30 120 23.28 120 15C120 6.72 126.72 0 135 0C143.28 0 150 6.72 150 15Z" id="bmrR9PEXd"></path><path d="M150 15C150 23.28 156.72 30 165 30C173.28 30 180 23.28 180 15C180 6.72 173.28 0 165 0C156.72 0 150 6.72 150 15Z" id="a4ywP3K9g"></path><path d="M180 15C180 23.28 186.72 30 195 30C203.28 30 210 23.28 210 15C210 6.72 203.28 0 195 0C186.72 0 180 6.72 180 15Z" id="bzyaj931I"></path></defs><g><g><g><use xlink:href="#buTMr8vG" opacity="1" fill="#2196f3" fill-opacity="1"></use><g><use xlink:href="#buTMr8vG" opacity="1" fill-opacity="0" stroke="#000000" stroke-width="1" stroke-opacity="1"></use></g></g><g><use xlink:href="#admImM8xj" opacity="1" fill="#4caf50" fill-opacity="1"></use><g><use xlink:href="#admImM8xj" opacity="1" fill-opacity="0" stroke="#000000" stroke-width="1" stroke-opacity="1"></use></g></g><g><use xlink:href="#d1miqLApoz" opacity="1" fill="#ffeb3b" fill-opacity="1"></use><g><use xlink:href="#d1miqLApoz" opacity="1" fill-opacity="0" stroke="#000000" stroke-width="1" stroke-opacity="1"></use></g></g><g><use xlink:href="#ammJb9RE9" opacity="1" fill="#ff9800" fill-opacity="1"></use><g><use xlink:href="#ammJb9RE9" opacity="1" fill-opacity="0" stroke="#000000" stroke-width="1" stroke-opacity="1"></use></g></g><g><use xlink:href="#bmrR9PEXd" opacity="1" fill="#f44336" fill-opacity="1"></use><g><use xlink:href="#bmrR9PEXd" opacity="1" fill-opacity="0" stroke="#000000" stroke-width="1" stroke-opacity="1"></use></g></g><g><use xlink:href="#a4ywP3K9g" opacity="1" fill="#9c27b0" fill-opacity="1"></use><g><use xlink:href="#a4ywP3K9g" opacity="1" fill-opacity="0" stroke="#000000" stroke-width="1" stroke-opacity="1"></use></g></g><g><use xlink:href="#bzyaj931I" opacity="1" fill="#3f51b5" fill-opacity="1"></use><g><use xlink:href="#bzyaj931I" opacity="1" fill-opacity="0" stroke="#000000" stroke-width="1" stroke-opacity="1"></use></g></g></g></g></svg>