<?xml version="1.0" encoding="UTF-8" standalone="no"?>
<!DOCTYPE svg PUBLIC "-//W3C//DTD SVG 1.1//EN" "http://www.w3.org/Graphics/SVG/1.1/DTD/svg11.dtd">
<svg version="1.1" xmlns="http://www.w3.org/2000/svg" xmlns:xlink="http://www.w3.org/1999/xlink" preserveAspectRatio="xMidYMid meet" viewBox="0 0 240 30" width="240" height="30"><defs><path d="M60 15C60 23.28 53.28 30 45 30C36.72 30 30 23.28 30 15C30 6.72 36.72 0 45 0C53.28 0 60 6.72 60 15Z" id="ds2kGugy1"></path><path d="M90 15C90 23.28 83.28 30 75 30C66.72 30 60 23.28 60 15C60 6.72 66.72 0 75 0C83.28 0 90 6.72 90 15Z" id="dPV5g8yJd"></path><path d="M119.83 12.72C121.08 20.9 115.46 28.57 107.28 29.83C99.1 31.09 91.43 25.47 90.17 17.28C88.92 9.1 94.54 1.44 102.72 0.18C110.9 -1.08 118.57 4.54 119.83 12.72Z" id="dBB6uJ0W"></path><path d="M150 15C150 23.28 143.28 30 135 30C126.72 30 120 23.28 120 15C120 6.72 126.72 0 135 0C143.28 0 150 6.72 150 15Z" id="d45i6XQAMJ"></path><path d="M180 15C180 23.28 173.28 30 165 30C156.72 30 150 23.28 150 15C150 6.72 156.72 0 165 0C173.28 0 180 6.72 180 15Z" id="cqEejaSay"></path><path d="M180 15C180 23.28 186.72 30 195 30C203.28 30 210 23.28 210 15C210 6.72 203.28 0 195 0C186.72 0 180 6.72 180 15Z" id="a1uLfkDec"></path><path d="M210 15C210 23.28 216.72 30 225 30C233.28 30 240 23.28 240 15C240 6.72 233.28 0 225 0C216.72 0 210 6.72 210 15Z" id="f3Pdbdqbsl"></path><path d="M30 15C30 23.28 23.28 30 15 30C6.72 30 0 23.28 0 15C0 6.72 6.72 0 15 0C23.28 0 30 6.72 30 15Z" id="afrlYGN9A"></path><clipPath id="clipc1TnXiTA1S"><use xlink:href="#afrlYGN9A" opacity="1"></use></clipPath><path d="M17.78 11.92L24 12.88L19.5 17.49L20.56 24L15 20.92L9.44 24L10.5 17.49L6 12.88L12.22 11.92L15 6L17.78 11.92Z" id="ackotZ3se"></path><path d="M47.78 11.92L54 12.88L49.5 17.49L50.56 24L45 20.92L39.44 24L40.5 17.49L36 12.88L42.22 11.92L45 6L47.78 11.92Z" id="b5ULeEuLHv"></path><path d="M77.78 11.92L84 12.88L79.5 17.49L80.56 24L75 20.92L69.44 24L70.5 17.49L66 12.88L72.22 11.92L75 6L77.78 11.92Z" id="a3qrkA2z4G"></path><path d="M107.78 11.92L114 12.88L109.5 17.49L110.56 24L105 20.92L99.44 24L100.5 17.49L96 12.88L102.22 11.92L105 6L107.78 11.92Z" id="g1tDOlna7P"></path><path d="M132.22 11.92L126 12.88L130.5 17.49L129.44 24L135 20.92L140.56 24L139.5 17.49L144 12.88L137.78 11.92L135 6L132.22 11.92Z" id="ba6y4RInRw"></path><path d="M167.78 11.92L174 12.88L169.5 17.49L170.56 24L165 20.92L159.44 24L160.5 17.49L156 12.88L162.22 11.92L165 6L167.78 11.92Z" id="c2R3PlrNgy"></path><path d="M197.78 11.92L204 12.88L199.5 17.49L200.56 24L195 20.92L189.44 24L190.5 17.49L186 12.88L192.22 11.92L195 6L197.78 11.92Z" id="b2hHKvTMpB"></path><path d="M227.78 11.92L234 12.88L229.5 17.49L230.56 24L225 20.92L219.44 24L220.5 17.49L216 12.88L222.22 11.92L225 6L227.78 11.92Z" id="c7Tgze629"></path></defs><g><g><g><use xlink:href="#ds2kGugy1" opacity="1" fill="#2196f3" fill-opacity="1"></use><g><use xlink:href="#ds2kGugy1" opacity="1" fill-opacity="0" stroke="#000000" stroke-width="1" stroke-opacity="1"></use></g></g><g><use xlink:href="#dPV5g8yJd" opacity="1" fill="#4caf50" fill-opacity="1"></use><g><use xlink:href="#dPV5g8yJd" opacity="1" fill-opacity="0" stroke="#000000" stroke-width="1" stroke-opacity="1"></use></g></g><g><use xlink:href="#dBB6uJ0W" opacity="1" fill="#ffeb3b" fill-opacity="1"></use><g><use xlink:href="#dBB6uJ0W" opacity="1" fill-opacity="0" stroke="#000000" stroke-width="1" stroke-opacity="1"></use></g></g><g><use xlink:href="#d45i6XQAMJ" opacity="1" fill="#ff9800" fill-opacity="1"></use><g><use xlink:href="#d45i6XQAMJ" opacity="1" fill-opacity="0" stroke="#000000" stroke-width="1" stroke-opacity="1"></use></g></g><g><use xlink:href="#cqEejaSay" opacity="1" fill="#f44336" fill-opacity="1"></use><g><use xlink:href="#cqEejaSay" opacity="1" fill-opacity="0" stroke="#000000" stroke-width="1" stroke-opacity="1"></use></g></g><g><use xlink:href="#a1uLfkDec" opacity="1" fill="#9c27b0" fill-opacity="1"></use><g><use xlink:href="#a1uLfkDec" opacity="1" fill-opacity="0" stroke="#000000" stroke-width="1" stroke-opacity="1"></use></g></g><g><use xlink:href="#f3Pdbdqbsl" opacity="1" fill="#3f51b5" fill-opacity="1"></use><g><use xlink:href="#f3Pdbdqbsl" opacity="1" fill-opacity="0" stroke="#000000" stroke-width="1" stroke-opacity="1"></use></g></g><g><use xlink:href="#afrlYGN9A" opacity="1" fill="#ffffff" fill-opacity="1"></use><g clip-path="url(#clipc1TnXiTA1S)"><use xlink:href="#afrlYGN9A" opacity="1" fill-opacity="0" stroke="#000000" stroke-width="2" stroke-opacity="1"></use></g></g><g><use xlink:href="#ackotZ3se" opacity="1" fill="#ffffff" fill-opacity="1"></use><g><use xlink:href="#ackotZ3se" opacity="1" fill-opacity="0" stroke="#000000" stroke-width="1.5" stroke-opacity="1"></use></g></g><g><use xlink:href="#b5ULeEuLHv" opacity="1" fill="#ffffff" fill-opacity="1"></use><g><use xlink:href="#b5ULeEuLHv" opacity="1" fill-opacity="0" stroke="#000000" stroke-width="1.5" stroke-opacity="1"></use></g></g><g><use xlink:href="#a3qrkA2z4G" opacity="1" fill="#ffffff" fill-opacity="1"></use><g><use xlink:href="#a3qrkA2z4G" opacity="1" fill-opacity="0" stroke="#000000" stroke-width="1.5" stroke-opacity="1"></use></g></g><g><use xlink:href="#g1tDOlna7P" opacity="1" fill="#ffffff" fill-opacity="1"></use><g><use xlink:href="#g1tDOlna7P" opacity="1" fill-opacity="0" stroke="#000000" stroke-width="1.5" stroke-opacity="1"></use></g></g><g><use xlink:href="#ba6y4RInRw" opacity="1" fill="#ffffff" fill-opacity="1"></use><g><use xlink:href="#ba6y4RInRw" opacity="1" fill-opacity="0" stroke="#000000" stroke-width="1.5" stroke-opacity="1"></use></g></g><g><use xlink:href="#c2R3PlrNgy" opacity="1" fill="#ffffff" fill-opacity="1"></use><g><use xlink:href="#c2R3PlrNgy" opacity="1" fill-opacity="0" stroke="#000000" stroke-width="1.5" stroke-opacity="1"></use></g></g><g><use xlink:href="#b2hHKvTMpB" opacity="1" fill="#ffffff" fill-opacity="1"></use><g><use xlink:href="#b2hHKvTMpB" opacity="1" fill-opacity="0" stroke="#000000" stroke-width="1.5" stroke-opacity="1"></use></g></g><g><use xlink:href="#c7Tgze629" opacity="1" fill="#ffffff" fill-opacity="1"></use><g><use xlink:href="#c7Tgze629" opacity="1" fill-opacity="0" stroke="#000000" stroke-width="1.5" stroke-opacity="1"></use></g></g></g></g></svg>