<?xml version="1.0" encoding="UTF-8" standalone="no"?>
<!DOCTYPE svg PUBLIC "-//W3C//DTD SVG 1.1//EN" "http://www.w3.org/Graphics/SVG/1.1/DTD/svg11.dtd">
<svg version="1.1" xmlns="http://www.w3.org/2000/svg" xmlns:xlink="http://www.w3.org/1999/xlink" preserveAspectRatio="xMidYMid meet" viewBox="0 0 240 30" width="240" height="30"><defs><path d="M60 15C60 23.28 53.28 30 45 30C36.72 30 30 23.28 30 15C30 6.72 36.72 0 45 0C53.28 0 60 6.72 60 15Z" id="d1H7WaHdEA"></path><path d="M90 15C90 23.28 83.28 30 75 30C66.72 30 60 23.28 60 15C60 6.72 66.72 0 75 0C83.28 0 90 6.72 90 15Z" id="cmW65obbe"></path><path d="M119.83 12.72C121.08 20.9 115.46 28.57 107.28 29.83C99.1 31.09 91.43 25.47 90.17 17.28C88.92 9.1 94.54 1.44 102.72 0.18C110.9 -1.08 118.57 4.54 119.83 12.72Z" id="mLVyFbQkR"></path><path d="M150 15C150 23.28 143.28 30 135 30C126.72 30 120 23.28 120 15C120 6.72 126.72 0 135 0C143.28 0 150 6.72 150 15Z" id="a20Q0uASqq"></path><path d="M180 15C180 23.28 173.28 30 165 30C156.72 30 150 23.28 150 15C150 6.72 156.72 0 165 0C173.28 0 180 6.72 180 15Z" id="d3SAfdsC51"></path><path d="M180 15C180 23.28 186.72 30 195 30C203.28 30 210 23.28 210 15C210 6.72 203.28 0 195 0C186.72 0 180 6.72 180 15Z" id="a1TYeNxl5j"></path><path d="M210 15C210 23.28 216.72 30 225 30C233.28 30 240 23.28 240 15C240 6.72 233.28 0 225 0C216.72 0 210 6.72 210 15Z" id="a2XSrnDyW"></path><path d="M30 15C30 23.28 23.28 30 15 30C6.72 30 0 23.28 0 15C0 6.72 6.72 0 15 0C23.28 0 30 6.72 30 15Z" id="ewVHhcope"></path><path d="M18.4 11.24L26 12.4L20.5 18.04L21.8 26L15 22.24L8.2 26L9.5 18.04L4 12.4L11.6 11.24L15 4L18.4 11.24Z" id="b9cFvPk5Ec"></path><path d="M48.4 11.24L56 12.4L50.5 18.04L51.8 26L45 22.24L38.2 26L39.5 18.04L34 12.4L41.6 11.24L45 4L48.4 11.24Z" id="e1k4unxjWR"></path><path d="M78.4 11.24L86 12.4L80.5 18.04L81.8 26L75 22.24L68.2 26L69.5 18.04L64 12.4L71.6 11.24L75 4L78.4 11.24Z" id="aXOUlt7Qz"></path><path d="M108.4 11.24L116 12.4L110.5 18.04L111.8 26L105 22.24L98.2 26L99.5 18.04L94 12.4L101.6 11.24L105 4L108.4 11.24Z" id="i2hsFhQDcK"></path><path d="M138.4 11.24L146 12.4L140.5 18.04L141.8 26L135 22.24L128.2 26L129.5 18.04L124 12.4L131.6 11.24L135 4L138.4 11.24Z" id="acCQHWtNV"></path><path d="M168.4 11.24L176 12.4L170.5 18.04L171.8 26L165 22.24L158.2 26L159.5 18.04L154 12.4L161.6 11.24L165 4L168.4 11.24Z" id="aEH2vTezs"></path><path d="M198.4 11.24L206 12.4L200.5 18.04L201.8 26L195 22.24L188.2 26L189.5 18.04L184 12.4L191.6 11.24L195 4L198.4 11.24Z" id="a1BNJ5GEwU"></path><path d="M228.4 11.24L236 12.4L230.5 18.04L231.8 26L225 22.24L218.2 26L219.5 18.04L214 12.4L221.6 11.24L225 4L228.4 11.24Z" id="aTGRMM8sP"></path></defs><g><g><g><use xlink:href="#d1H7WaHdEA" opacity="1" fill="#2196f3" fill-opacity="1"></use></g><g><use xlink:href="#cmW65obbe" opacity="1" fill="#4caf50" fill-opacity="1"></use></g><g><use xlink:href="#mLVyFbQkR" opacity="1" fill="#ffeb3b" fill-opacity="1"></use></g><g><use xlink:href="#a20Q0uASqq" opacity="1" fill="#ff9800" fill-opacity="1"></use></g><g><use xlink:href="#d3SAfdsC51" opacity="1" fill="#f44336" fill-opacity="1"></use></g><g><use xlink:href="#a1TYeNxl5j" opacity="1" fill="#9c27b0" fill-opacity="1"></use></g><g><use xlink:href="#a2XSrnDyW" opacity="1" fill="#3f51b5" fill-opacity="1"></use></g><g><use xlink:href="#ewVHhcope" opacity="1" fill="#ffffff" fill-opacity="1"></use><g><use xlink:href="#ewVHhcope" opacity="1" fill-opacity="0" stroke="#000000" stroke-width="1" stroke-opacity="1"></use></g></g><g><use xlink:href="#b9cFvPk5Ec" opacity="1" fill="#ffffff" fill-opacity="1"></use><g><use xlink:href="#b9cFvPk5Ec" opacity="1" fill-opacity="0" stroke="#000000" stroke-width="1" stroke-opacity="1"></use></g></g><g><use xlink:href="#e1k4unxjWR" opacity="1" fill="#ffffff" fill-opacity="1"></use><g><use xlink:href="#e1k4unxjWR" opacity="1" fill-opacity="0" stroke="#000000" stroke-width="1" stroke-opacity="1"></use></g></g><g><use xlink:href="#aXOUlt7Qz" opacity="1" fill="#ffffff" fill-opacity="1"></use><g><use xlink:href="#aXOUlt7Qz" opacity="1" fill-opacity="0" stroke="#000000" stroke-width="1" stroke-opacity="1"></use></g></g><g><use xlink:href="#i2hsFhQDcK" opacity="1" fill="#ffffff" fill-opacity="1"></use><g><use xlink:href="#i2hsFhQDcK" opacity="1" fill-opacity="0" stroke="#000000" stroke-width="1" stroke-opacity="1"></use></g></g><g><use xlink:href="#acCQHWtNV" opacity="1" fill="#ffffff" fill-opacity="1"></use><g><use xlink:href="#acCQHWtNV" opacity="1" fill-opacity="0" stroke="#000000" stroke-width="1" stroke-opacity="1"></use></g></g><g><use xlink:href="#aEH2vTezs" opacity="1" fill="#ffffff" fill-opacity="1"></use><g><use xlink:href="#aEH2vTezs" opacity="1" fill-opacity="0" stroke="#000000" stroke-width="1" stroke-opacity="1"></use></g></g><g><use xlink:href="#a1BNJ5GEwU" opacity="1" fill="#ffffff" fill-opacity="1"></use><g><use xlink:href="#a1BNJ5GEwU" opacity="1" fill-opacity="0" stroke="#000000" stroke-width="1" stroke-opacity="1"></use></g></g><g><use xlink:href="#aTGRMM8sP" opacity="1" fill="#ffffff" fill-opacity="1"></use><g><use xlink:href="#aTGRMM8sP" opacity="1" fill-opacity="0" stroke="#000000" stroke-width="1" stroke-opacity="1"></use></g></g></g></g></svg>